<?xml version="1.0" encoding="UTF-8"?>
<svg id="Capa_1" data-name="Capa 1" xmlns="http://www.w3.org/2000/svg" viewBox="0 0 1080 1080">
  <defs>
    <style>
      .cls-1 {
        fill: #00f7aa;
      }
    </style>
  </defs>
  <path class="cls-1" d="M774.04,554.8c-4.44-5.08-9.08-10.03-13.89-14.81,4.81-4.78,9.42-9.72,13.89-14.81,9.49-10.74,18.23-22.19,26.16-34.26,10.84-16.54,64.45-102.33,53.74-169.52-3.18-19.99-11.72-36.46-25.34-49.03-14.77-13.62-33.48-19.92-54.08-18.26-53.4,4.3-112.22,62.21-138.58,95.75-19.58,24.94-35.07,53.06-45.95,83.05-2.34,6.44-4.47,12.98-6.34,19.58-6.81-.91-13.66-1.63-20.53-2.13-2.3-.17-4.61-.31-6.95-.44-4.81-.24-9.66-.34-14.47-.37h-3.42c-4.78.03-9.62.14-14.47.37-2.3.14-4.61.27-6.91.44,3.39,12.06,6.07,24.36,8.06,36.83.24,0,.47-.03.71-.03,4.24-.2,8.47-.31,12.64-.34h3.35c4.2.03,8.44.14,12.64.34.24,0,.51.03.75.03h.03c6.81.37,13.55.98,20.26,1.83,12.4,1.56,24.6,3.93,36.59,7.15,3.32.85,6.64,1.8,9.93,2.81,3.25,1.02,6.51,2.07,9.72,3.22,18.81,6.57,36.73,15.18,53.54,25.62,10.74-7.42,20.87-15.69,30.33-24.73-23.28-15.79-48.72-28.46-75.66-37.47-2.3-.78-4.64-1.52-6.98-2.24-4.13-1.29-8.3-2.47-12.5-3.56,1.97-6.54,4.17-12.94,6.61-19.28,9.42-24.4,22.3-47.23,38.32-67.66,24.46-31.14,74.54-78.58,112.26-81.63,10.4-.85,18.6,1.86,25.85,8.54,7.42,6.84,11.93,15.82,13.79,27.48,7.08,44.49-26.9,110.93-48.08,143.16-6.95,10.57-14.6,20.6-22.91,30.02-4.47,5.12-9.15,10.06-13.99,14.77-9.11,8.95-18.84,17.25-29.11,24.77-5.79,4.3-11.79,8.37-17.92,12.16-16.81,10.44-34.73,19.04-53.54,25.62-3.22,1.15-6.47,2.2-9.72,3.22-3.29,1.02-6.61,1.96-9.93,2.81-1.08-6.74-1.93-13.55-2.51-20.4-.07-.91-.14-1.8-.2-2.68-.51-6.74-.78-13.52-.81-20.33v-.81c.03-6.81.3-13.59.81-20.33.07-.88.14-1.8.2-2.68-11.99-3.35-24.29-5.83-36.73-7.39-.34,3.35-.61,6.67-.81,10.06-.47,6.74-.71,13.52-.75,20.33v.81c.03,6.81.27,13.59.75,20.33.2,3.35.47,6.71.81,10.03.64,6.78,1.56,13.52,2.64,20.19-5.52.71-11.08,1.25-16.67,1.56-1.19.14-2.41.2-3.59.27-.24,0-.51.03-.75.03-4.24.2-8.47.31-12.67.31h-3.32c-4.2,0-8.44-.1-12.67-.31-.24,0-.51-.03-.75-.03-1.22-.07-2.41-.14-3.59-.27-5.59-.31-11.15-.85-16.67-1.56,1.08-6.68,2-13.38,2.64-20.16.34-3.35.61-6.67.81-10.06.47-6.74.71-13.52.75-20.33v-.81c-.03-6.81-.27-13.59-.75-20.33-.2-3.39-.47-6.71-.81-10.06-.64-6.78-1.56-13.49-2.64-20.16-2.03-12.37-4.81-24.57-8.3-36.53-1.86-6.61-4-13.15-6.34-19.58-10.88-29.99-26.36-58.11-45.95-83.05-26.36-33.54-85.18-91.48-138.58-95.75-20.6-1.66-39.3,4.64-54.08,18.26-13.66,12.57-22.16,29.04-25.34,49.03-10.74,67.19,42.86,152.98,53.74,169.52,7.93,12.06,16.67,23.51,26.12,34.26,4.51,5.12,9.15,10.03,13.93,14.81,8.84,8.81,18.2,17.08,27.99,24.73,5.42,4.24,10.98,8.3,16.67,12.16,23.28,15.79,48.76,28.46,75.7,37.48,3.63-11.89,6.37-24.16,8.2-36.59-18.81-6.57-36.76-15.18-53.57-25.62-6.13-3.83-12.1-7.86-17.89-12.16,5.79-4.3,11.76-8.34,17.89-12.16,16.81-10.44,34.76-19.04,53.57-25.62,3.22-1.15,6.47-2.2,9.72-3.22,3.29-1.02,6.61-1.97,9.93-2.81,1.08,6.74,1.93,13.55,2.51,20.4.07.88.14,1.8.2,2.68.51,6.74.78,13.52.81,20.33v.81c-.03,6.81-.31,13.59-.81,20.33-.07.88-.14,1.76-.2,2.68-.58,6.84-1.42,13.66-2.51,20.4-1.97,12.33-4.78,24.5-8.37,36.36-1.97,6.54-4.2,12.94-6.61,19.28-9.42,24.4-22.33,47.23-38.36,67.66-24.46,31.14-74.54,78.58-112.22,81.63-10.4.81-18.64-1.9-25.85-8.54-7.42-6.84-11.93-15.82-13.79-27.48-7.08-44.49,26.87-110.93,48.08-143.19,6.95-10.57,14.6-20.57,22.87-29.99-9.76-7.69-19.08-15.96-27.89-24.73-9.49,10.74-18.2,22.19-26.12,34.26-10.88,16.53-64.48,102.33-53.74,169.52,3.19,19.96,11.69,36.46,25.34,49.03,14.77,13.62,33.44,19.92,54.08,18.26,53.4-4.3,112.22-62.21,138.58-95.76,19.58-24.94,35.07-53.06,45.95-83.05,2.34-6.47,4.47-13.01,6.37-19.62,6.81.95,13.65,1.66,20.5,2.13,1.49.14,3.02.24,4.51.31.81.07,1.63.1,2.44.13,4.81.24,9.66.37,14.43.37h3.46c4.78,0,9.62-.14,14.43-.37.81-.03,1.63-.07,2.44-.13,1.52-.07,3.02-.17,4.51-.31,6.88-.47,13.72-1.19,20.5-2.13,12.4-1.69,24.67-4.13,36.7-7.29,4.2-1.08,8.37-2.27,12.5-3.56,2.34-.71,4.68-1.46,6.98-2.24,26.94-9.01,52.38-21.68,75.66-37.48,5.73-3.9,11.28-7.93,16.7-12.16,4.85,4.74,9.52,9.69,13.99,14.81,8.3,9.42,15.96,19.42,22.91,29.99,21.18,32.26,55.16,98.7,48.08,143.19-1.86,11.66-6.37,20.64-13.79,27.48-7.25,6.67-15.45,9.39-25.85,8.54-37.71-3.05-87.79-50.49-112.26-81.63-16.03-20.43-28.9-43.3-38.32-67.7-12.1,3.25-24.46,5.83-36.93,7.66,10.88,29.99,26.36,58.11,45.95,83.05,5.76,7.35,26.87,33.1,56.55,56.86,29.82,23.85,57.4,36.93,82.03,38.9,2.13.17,4.27.27,6.37.27,18.09,0,34.46-6.34,47.71-18.53,13.62-12.57,22.16-29.07,25.34-49.03,10.71-67.19-42.9-152.98-53.74-169.52-7.93-12.06-16.64-23.51-26.16-34.26ZM447.2,463.38c-2.34.71-4.68,1.46-6.98,2.24-26.94,9.01-52.42,21.68-75.7,37.47-5.69,3.86-11.25,7.93-16.67,12.13-4.88-4.74-9.56-9.69-14.03-14.81-8.3-9.42-15.92-19.42-22.87-29.99-21.21-32.22-55.16-98.67-48.08-143.16,1.86-11.66,6.37-20.64,13.79-27.48,7.22-6.67,15.45-9.39,25.85-8.54,37.68,3.05,87.76,50.49,112.22,81.63,16.03,20.43,28.94,43.27,38.32,67.66,2.47,6.34,4.68,12.74,6.64,19.28-4.2,1.08-8.37,2.27-12.5,3.56Z"/>
</svg>